#N canvas 775 397 300 190 12;
#X obj 18 23 inlet;
#X obj 18 47 log 10;
#X obj 18 72 * 20;
#X obj 18 97 outlet;
#X obj 116 23 loadbang;
#X obj 116 48 f \$1;
#X connect 0 0 1 0;
#X connect 1 0 2 0;
#X connect 2 0 3 0;
#X connect 4 0 5 0;
#X connect 5 0 1 0;
