#N canvas 0 57 1280 642 12;
#N canvas 0 50 450 250 (subpatch) 0;
#X array \$0_audioR 3.99236e+06 float 2;
#X coords 0 1 3.99236e+06 -1 200 140 1 0 0;
#X restore 863 249 graph;
#X obj 346 182 soundfiler;
#N canvas 0 50 450 250 (subpatch) 0;
#X array \$0_audioL 3.99236e+06 float 2;
#X coords 0 1 3.99236e+06 -1 200 140 1 0 0;
#X restore 863 85 graph;
#X msg 346 159 read -resize \$1 \$2_audioL \$2_audioR;
#X obj 35 233 tabplay~ \$0_audioL;
#X obj 185 233 tabplay~ \$0_audioR;
#X obj 35 28 inlet;
#X obj 346 29 inlet;
#X obj 34 258 outlet~;
#X obj 185 257 outlet~;
#X obj 346 208 outlet;
#X obj 413 208 outlet;
#X obj 548 244 outlet, f 8;
#X obj 346 134 pack s \$0;
#X obj 355 110 list trim;
#X obj 355 85 symbol \$1;
#X obj 355 60 loadbang;
#X text 421 59 bang é dado quando eu crio o objeto;
#X obj 681 271 outlet;
#X obj 749 154 bng 20 250 50 0 empty empty empty 0 -10 0 12 #fcfcfc #000000 #000000;
#X obj 745 178 f \$0;
#X obj 766 59 inlet;
#X connect 1 0 10 0;
#X connect 1 1 11 0;
#X connect 3 0 1 0;
#X connect 4 0 8 0;
#X connect 5 0 9 0;
#X connect 5 1 12 0;
#X connect 6 0 5 0;
#X connect 6 0 4 0;
#X connect 7 0 13 0;
#X connect 13 0 3 0;
#X connect 14 0 13 0;
#X connect 15 0 14 0;
#X connect 16 0 15 0;
#X connect 16 0 19 0;
#X connect 19 0 20 0;
#X connect 20 0 18 0;
#X connect 21 0 19 0;
