#N canvas 504 180 386 309 12;
#X msg 18 51 10 \$1;
#X obj 17 75 pow 10;
#X obj 18 -7 inlet;
#X obj 116 23 loadbang;
#X obj 116 48 f \$1;
#X obj 18 125 outlet;
#X obj 17 18 / 20;
#X connect 0 0 1 0;
#X connect 1 0 5 0;
#X connect 2 0 6 0;
#X connect 3 0 4 0;
#X connect 4 0 0 0;
#X connect 6 0 0 0;
