#N canvas 358 97 1094 598 12;
#X declare -lib vstplugin;
#X msg 6 377 vis \$1;
#X obj 383 30 declare -lib vstplugin;
#X obj 703 33 catch~ \$1-o3-0;
#X obj 713 56 catch~ \$1-o3-1;
#X obj 723 79 catch~ \$1-o3-2;
#X obj 733 102 catch~ \$1-o3-3;
#X obj 743 125 catch~ \$1-o3-4;
#X obj 753 148 catch~ \$1-o3-5;
#X obj 763 170 catch~ \$1-o3-6;
#X obj 773 192 catch~ \$1-o3-7;
#X obj 893 33 catch~ \$1-o3-8;
#X obj 903 56 catch~ \$1-o3-9;
#X obj 913 79 catch~ \$1-o3-10;
#X obj 923 102 catch~ \$1-o3-11;
#X obj 933 125 catch~ \$1-o3-12;
#X obj 943 148 catch~ \$1-o3-13;
#X obj 953 170 catch~ \$1-o3-14;
#X obj 963 192 catch~ \$1-o3-15;
#X obj 328 523 vu 14 80 empty empty -1 -8 0 8 #404040 #000000 1 0;
#N canvas 329 161 625 417 vu 0;
#X obj 59 129 env~ 1024;
#X obj 161 111 abs~;
#X obj 161 213 snapshot~;
#X obj 161 256 rmstodb;
#X obj 161 21 inlet~;
#X obj 161 288 - 100;
#X obj 59 287 - 100;
#X obj 59 361 outlet;
#X obj 161 361 outlet;
#X text 344 307 Check the help file of env~ and slop~ for more details., f 31;
#X obj 239 89 expr 1000 / $f1;
#X floatatom 239 117 5 0 0 0 - - - 0;
#X obj 161 146 slop~ 0 0 0 0 1e+09;
#X floatatom 239 57 5 0 0 0 - - - 0;
#X text 359 89 convert to hz;
#X text 282 118 hz;
#X text 284 57 peak decay time in ms;
#X obj 59 171 t f b;
#X text 345 132 The env~ object is dedicated to RMS analysis. Its output is in dB (0-100 range \, pd style) but needs to be converted to dBFS (and we do that by simply subtracting 100)., f 31;
#X text 345 225 The slop~ object is used here for peak detection. We need to convert the output to dB with rmstodb and also subract by 100 to convert it to dBFS., f 31;
#X msg 291 32 500;
#X obj 291 11 loadbang;
#X connect 0 0 17 0;
#X connect 1 0 12 0;
#X connect 2 0 3 0;
#X connect 3 0 5 0;
#X connect 4 0 0 0;
#X connect 4 0 1 0;
#X connect 5 0 8 0;
#X connect 6 0 7 0;
#X connect 10 0 11 0;
#X connect 11 0 12 3;
#X connect 12 0 2 0;
#X connect 13 0 10 0;
#X connect 17 0 6 0;
#X connect 17 1 2 0;
#X connect 20 0 13 0;
#X connect 21 0 20 0;
#X restore 276 289 pd vu;
#X obj 267 259 *~;
#X obj 385 420 line~;
#X msg 384 396 \$1 5;
#X obj 374 506 vsl 30 100 -120 6 0 0 empty empty empty 0 -9 0 12 #38cc98 #000000 #000000 0 1;
#X floatatom 374 616 7 0 0 1 dB - - 0;
#X obj 284 523 vu 14 80 empty empty -1 -8 0 8 #404040 #000000 1 0;
#N canvas 329 161 625 417 vu 0;
#X obj 59 129 env~ 1024;
#X obj 161 111 abs~;
#X obj 161 213 snapshot~;
#X obj 161 256 rmstodb;
#X obj 161 21 inlet~;
#X obj 161 288 - 100;
#X obj 59 287 - 100;
#X obj 59 361 outlet;
#X obj 161 361 outlet;
#X text 344 307 Check the help file of env~ and slop~ for more details., f 31;
#X obj 239 89 expr 1000 / $f1;
#X floatatom 239 117 5 0 0 0 - - - 0;
#X obj 161 146 slop~ 0 0 0 0 1e+09;
#X floatatom 239 57 5 0 0 0 - - - 0;
#X text 359 89 convert to hz;
#X text 282 118 hz;
#X text 284 57 peak decay time in ms;
#X obj 59 171 t f b;
#X text 345 132 The env~ object is dedicated to RMS analysis. Its output is in dB (0-100 range \, pd style) but needs to be converted to dBFS (and we do that by simply subtracting 100)., f 31;
#X text 345 225 The slop~ object is used here for peak detection. We need to convert the output to dB with rmstodb and also subract by 100 to convert it to dBFS., f 31;
#X msg 291 32 500;
#X obj 291 11 loadbang;
#X connect 0 0 17 0;
#X connect 1 0 12 0;
#X connect 2 0 3 0;
#X connect 3 0 5 0;
#X connect 4 0 0 0;
#X connect 4 0 1 0;
#X connect 5 0 8 0;
#X connect 6 0 7 0;
#X connect 10 0 11 0;
#X connect 11 0 12 3;
#X connect 12 0 2 0;
#X connect 13 0 10 0;
#X connect 17 0 6 0;
#X connect 17 1 2 0;
#X connect 20 0 13 0;
#X connect 21 0 20 0;
#X restore 226 289 pd vu;
#X obj 217 259 *~;
#X obj 241 523 vu 14 80 empty empty -1 -8 0 8 #404040 #000000 1 0;
#N canvas 329 161 625 417 vu 0;
#X obj 59 129 env~ 1024;
#X obj 161 111 abs~;
#X obj 161 213 snapshot~;
#X obj 161 256 rmstodb;
#X obj 161 21 inlet~;
#X obj 161 288 - 100;
#X obj 59 287 - 100;
#X obj 59 361 outlet;
#X obj 161 361 outlet;
#X text 344 307 Check the help file of env~ and slop~ for more details., f 31;
#X obj 239 89 expr 1000 / $f1;
#X floatatom 239 117 5 0 0 0 - - - 0;
#X obj 161 146 slop~ 0 0 0 0 1e+09;
#X floatatom 239 57 5 0 0 0 - - - 0;
#X text 359 89 convert to hz;
#X text 282 118 hz;
#X text 284 57 peak decay time in ms;
#X obj 59 171 t f b;
#X text 345 132 The env~ object is dedicated to RMS analysis. Its output is in dB (0-100 range \, pd style) but needs to be converted to dBFS (and we do that by simply subtracting 100)., f 31;
#X text 345 225 The slop~ object is used here for peak detection. We need to convert the output to dB with rmstodb and also subract by 100 to convert it to dBFS., f 31;
#X msg 291 32 500;
#X obj 291 11 loadbang;
#X connect 0 0 17 0;
#X connect 1 0 12 0;
#X connect 2 0 3 0;
#X connect 3 0 5 0;
#X connect 4 0 0 0;
#X connect 4 0 1 0;
#X connect 5 0 8 0;
#X connect 6 0 7 0;
#X connect 10 0 11 0;
#X connect 11 0 12 3;
#X connect 12 0 2 0;
#X connect 13 0 10 0;
#X connect 17 0 6 0;
#X connect 17 1 2 0;
#X connect 20 0 13 0;
#X connect 21 0 20 0;
#X restore 176 289 pd vu;
#X obj 167 259 *~;
#X obj 197 523 vu 14 80 empty empty -1 -8 0 8 #404040 #000000 1 0;
#N canvas 329 161 625 417 vu 0;
#X obj 59 129 env~ 1024;
#X obj 161 111 abs~;
#X obj 161 213 snapshot~;
#X obj 161 256 rmstodb;
#X obj 161 21 inlet~;
#X obj 161 288 - 100;
#X obj 59 287 - 100;
#X obj 59 361 outlet;
#X obj 161 361 outlet;
#X text 344 307 Check the help file of env~ and slop~ for more details., f 31;
#X obj 239 89 expr 1000 / $f1;
#X floatatom 239 117 5 0 0 0 - - - 0;
#X obj 161 146 slop~ 0 0 0 0 1e+09;
#X floatatom 239 57 5 0 0 0 - - - 0;
#X text 359 89 convert to hz;
#X text 282 118 hz;
#X text 284 57 peak decay time in ms;
#X obj 59 171 t f b;
#X text 345 132 The env~ object is dedicated to RMS analysis. Its output is in dB (0-100 range \, pd style) but needs to be converted to dBFS (and we do that by simply subtracting 100)., f 31;
#X text 345 225 The slop~ object is used here for peak detection. We need to convert the output to dB with rmstodb and also subract by 100 to convert it to dBFS., f 31;
#X msg 291 32 500;
#X obj 291 11 loadbang;
#X connect 0 0 17 0;
#X connect 1 0 12 0;
#X connect 2 0 3 0;
#X connect 3 0 5 0;
#X connect 4 0 0 0;
#X connect 4 0 1 0;
#X connect 5 0 8 0;
#X connect 6 0 7 0;
#X connect 10 0 11 0;
#X connect 11 0 12 3;
#X connect 12 0 2 0;
#X connect 13 0 10 0;
#X connect 17 0 6 0;
#X connect 17 1 2 0;
#X connect 20 0 13 0;
#X connect 21 0 20 0;
#X restore 126 289 pd vu;
#X obj 117 259 *~;
#X obj 151 523 vu 14 80 empty empty -1 -8 0 8 #404040 #000000 1 0;
#N canvas 329 161 625 417 vu 0;
#X obj 59 129 env~ 1024;
#X obj 161 111 abs~;
#X obj 161 213 snapshot~;
#X obj 161 256 rmstodb;
#X obj 161 21 inlet~;
#X obj 161 288 - 100;
#X obj 59 287 - 100;
#X obj 59 361 outlet;
#X obj 161 361 outlet;
#X text 344 307 Check the help file of env~ and slop~ for more details., f 31;
#X obj 239 89 expr 1000 / $f1;
#X floatatom 239 117 5 0 0 0 - - - 0;
#X obj 161 146 slop~ 0 0 0 0 1e+09;
#X floatatom 239 57 5 0 0 0 - - - 0;
#X text 359 89 convert to hz;
#X text 282 118 hz;
#X text 284 57 peak decay time in ms;
#X obj 59 171 t f b;
#X text 345 132 The env~ object is dedicated to RMS analysis. Its output is in dB (0-100 range \, pd style) but needs to be converted to dBFS (and we do that by simply subtracting 100)., f 31;
#X text 345 225 The slop~ object is used here for peak detection. We need to convert the output to dB with rmstodb and also subract by 100 to convert it to dBFS., f 31;
#X msg 291 32 500;
#X obj 291 11 loadbang;
#X connect 0 0 17 0;
#X connect 1 0 12 0;
#X connect 2 0 3 0;
#X connect 3 0 5 0;
#X connect 4 0 0 0;
#X connect 4 0 1 0;
#X connect 5 0 8 0;
#X connect 6 0 7 0;
#X connect 10 0 11 0;
#X connect 11 0 12 3;
#X connect 12 0 2 0;
#X connect 13 0 10 0;
#X connect 17 0 6 0;
#X connect 17 1 2 0;
#X connect 20 0 13 0;
#X connect 21 0 20 0;
#X restore 76 289 pd vu;
#X obj 67 259 *~;
#X obj 106 523 vu 14 80 empty empty -1 -8 0 8 #404040 #000000 1 0;
#N canvas 329 161 625 417 vu 0;
#X obj 59 129 env~ 1024;
#X obj 161 111 abs~;
#X obj 161 213 snapshot~;
#X obj 161 256 rmstodb;
#X obj 161 21 inlet~;
#X obj 161 288 - 100;
#X obj 59 287 - 100;
#X obj 59 361 outlet;
#X obj 161 361 outlet;
#X text 344 307 Check the help file of env~ and slop~ for more details., f 31;
#X obj 239 89 expr 1000 / $f1;
#X floatatom 239 117 5 0 0 0 - - - 0;
#X obj 161 146 slop~ 0 0 0 0 1e+09;
#X floatatom 239 57 5 0 0 0 - - - 0;
#X text 359 89 convert to hz;
#X text 282 118 hz;
#X text 284 57 peak decay time in ms;
#X obj 59 171 t f b;
#X text 345 132 The env~ object is dedicated to RMS analysis. Its output is in dB (0-100 range \, pd style) but needs to be converted to dBFS (and we do that by simply subtracting 100)., f 31;
#X text 345 225 The slop~ object is used here for peak detection. We need to convert the output to dB with rmstodb and also subract by 100 to convert it to dBFS., f 31;
#X msg 291 32 500;
#X obj 291 11 loadbang;
#X connect 0 0 17 0;
#X connect 1 0 12 0;
#X connect 2 0 3 0;
#X connect 3 0 5 0;
#X connect 4 0 0 0;
#X connect 4 0 1 0;
#X connect 5 0 8 0;
#X connect 6 0 7 0;
#X connect 10 0 11 0;
#X connect 11 0 12 3;
#X connect 12 0 2 0;
#X connect 13 0 10 0;
#X connect 17 0 6 0;
#X connect 17 1 2 0;
#X connect 20 0 13 0;
#X connect 21 0 20 0;
#X restore 26 289 pd vu;
#X obj 17 259 *~;
#X obj 41 518 inlet;
#X obj 42 547 tgl 20 0 empty empty empty 0 -10 0 12 #fcfcfc #000000 #000000 0 1;
#X obj 413 449 inlet;
#X obj 413 474 switch~;
#X obj 413 505 tgl 20 0 empty empty SW 22 12 0 12 #ffc7c6 #000000 #000000 0 1;
#X obj 109 617 tgl 16 0 empty empty vis 22 12 0 10 #c6ffc7 #000000 #000000 0 1;
#X text 151 619 AllRADecoder (IEM Plugin Suite);
#X text 285 160 3o ambisonics => hexafonico;
#X obj 377 233 dbamp~;
#X obj 287 330 print allrad;
#X msg 14 56 preset_list;
#X obj 31 217 vstplugin~ -e AllRADecoder.vst 16 6;
#X obj 88 330 dac~ 17 18 3 4 5 6;
#X obj 39 86 catch~ \$0_ambi-o3 16;
#X obj 37 109 snake~ out 16, f 36;
#X connect 0 0 51 0;
#X connect 19 0 18 0;
#X connect 19 1 18 1;
#X connect 20 0 19 0;
#X connect 20 0 52 5;
#X connect 21 0 48 0;
#X connect 22 0 21 0;
#X connect 23 0 24 0;
#X connect 23 0 22 0;
#X connect 26 0 25 0;
#X connect 26 1 25 1;
#X connect 27 0 26 0;
#X connect 27 0 52 4;
#X connect 29 0 28 0;
#X connect 29 1 28 1;
#X connect 30 0 29 0;
#X connect 30 0 52 3;
#X connect 32 0 31 0;
#X connect 32 1 31 1;
#X connect 33 0 32 0;
#X connect 33 0 52 2;
#X connect 35 0 34 0;
#X connect 35 1 34 1;
#X connect 36 0 35 0;
#X connect 36 0 52 1;
#X connect 38 0 37 0;
#X connect 38 1 37 1;
#X connect 39 0 38 0;
#X connect 39 0 52 0;
#X connect 40 0 41 0;
#X connect 41 0 0 0;
#X connect 42 0 43 0;
#X connect 44 0 43 0;
#X connect 45 0 41 0;
#X connect 48 0 20 1;
#X connect 48 0 27 1;
#X connect 48 0 30 1;
#X connect 48 0 33 1;
#X connect 48 0 36 1;
#X connect 48 0 39 1;
#X connect 50 0 51 0;
#X connect 51 0 39 0;
#X connect 51 1 36 0;
#X connect 51 2 33 0;
#X connect 51 3 30 0;
#X connect 51 4 27 0;
#X connect 51 5 20 0;
#X connect 51 6 49 0;
#X connect 53 0 54 0;
#X connect 54 0 51 0;
#X connect 54 1 51 1;
#X connect 54 2 51 2;
#X connect 54 3 51 3;
#X connect 54 4 51 4;
#X connect 54 5 51 5;
#X connect 54 6 51 6;
#X connect 54 7 51 7;
#X connect 54 8 51 8;
#X connect 54 9 51 9;
#X connect 54 10 51 10;
#X connect 54 11 51 11;
#X connect 54 12 51 12;
#X connect 54 13 51 13;
#X connect 54 14 51 14;
#X connect 54 15 51 15;
#X coords 0 -1 1 1 360 140 1 100 500;
