#N canvas 348 91 1332 699 12;
#X declare -lib vstplugin;
#X declare -lib iemlib;
#X msg 468 252 vis \$1;
#X obj 394 -23 declare -lib vstplugin;
#X obj 980 90 catch~ \$1-o3-0;
#X obj 985 113 catch~ \$1-o3-1;
#X obj 995 136 catch~ \$1-o3-2;
#X obj 1005 159 catch~ \$1-o3-3;
#X obj 1015 182 catch~ \$1-o3-4;
#X obj 1025 205 catch~ \$1-o3-5;
#X obj 1035 227 catch~ \$1-o3-6;
#X obj 1045 249 catch~ \$1-o3-7;
#X obj 1092 87 catch~ \$1-o3-8;
#X obj 1102 110 catch~ \$1-o3-9;
#X obj 1112 133 catch~ \$1-o3-10;
#X obj 1122 156 catch~ \$1-o3-11;
#X obj 1132 179 catch~ \$1-o3-12;
#X obj 1142 202 catch~ \$1-o3-13;
#X obj 1152 224 catch~ \$1-o3-14;
#X obj 1162 246 catch~ \$1-o3-15;
#X obj 406 412 line~;
#X obj 193 521 vsl 30 100 -120 6 0 0 empty empty empty 0 -9 0 12 #38cc98 #000000 #000000 0 1;
#X floatatom 194 627 7 0 0 1 dB - - 0;
#X obj 151 523 vu 14 80 empty empty -1 -8 0 8 #404040 #000000 1 0;
#N canvas 329 161 625 417 vu 0;
#X obj 59 129 env~ 1024;
#X obj 161 111 abs~;
#X obj 161 213 snapshot~;
#X obj 161 256 rmstodb;
#X obj 161 21 inlet~;
#X obj 161 288 - 100;
#X obj 59 287 - 100;
#X obj 59 361 outlet;
#X obj 161 361 outlet;
#X text 344 307 Check the help file of env~ and slop~ for more details., f 31;
#X obj 239 89 expr 1000 / $f1;
#X floatatom 239 117 5 0 0 0 - - - 0;
#X obj 161 146 slop~ 0 0 0 0 1e+09;
#X floatatom 239 57 5 0 0 0 - - - 0;
#X text 359 89 convert to hz;
#X text 282 118 hz;
#X text 284 57 peak decay time in ms;
#X obj 59 171 t f b;
#X text 345 132 The env~ object is dedicated to RMS analysis. Its output is in dB (0-100 range \, pd style) but needs to be converted to dBFS (and we do that by simply subtracting 100)., f 31;
#X text 345 225 The slop~ object is used here for peak detection. We need to convert the output to dB with rmstodb and also subract by 100 to convert it to dBFS., f 31;
#X msg 291 32 500;
#X obj 291 11 loadbang;
#X connect 0 0 17 0;
#X connect 1 0 12 0;
#X connect 2 0 3 0;
#X connect 3 0 5 0;
#X connect 4 0 0 0;
#X connect 4 0 1 0;
#X connect 5 0 8 0;
#X connect 6 0 7 0;
#X connect 10 0 11 0;
#X connect 11 0 12 3;
#X connect 12 0 2 0;
#X connect 13 0 10 0;
#X connect 17 0 6 0;
#X connect 17 1 2 0;
#X connect 20 0 13 0;
#X connect 21 0 20 0;
#X restore 83 473 pd vu;
#X obj 110 365 *~;
#X obj 106 523 vu 14 80 empty empty -1 -8 0 8 #404040 #000000 1 0;
#N canvas 329 161 625 417 vu 0;
#X obj 59 129 env~ 1024;
#X obj 161 111 abs~;
#X obj 161 213 snapshot~;
#X obj 161 256 rmstodb;
#X obj 161 21 inlet~;
#X obj 161 288 - 100;
#X obj 59 287 - 100;
#X obj 59 361 outlet;
#X obj 161 361 outlet;
#X text 344 307 Check the help file of env~ and slop~ for more details., f 31;
#X obj 239 89 expr 1000 / $f1;
#X floatatom 239 117 5 0 0 0 - - - 0;
#X obj 161 146 slop~ 0 0 0 0 1e+09;
#X floatatom 239 57 5 0 0 0 - - - 0;
#X text 359 89 convert to hz;
#X text 282 118 hz;
#X text 284 57 peak decay time in ms;
#X obj 59 171 t f b;
#X text 345 132 The env~ object is dedicated to RMS analysis. Its output is in dB (0-100 range \, pd style) but needs to be converted to dBFS (and we do that by simply subtracting 100)., f 31;
#X text 345 225 The slop~ object is used here for peak detection. We need to convert the output to dB with rmstodb and also subract by 100 to convert it to dBFS., f 31;
#X msg 291 32 500;
#X obj 291 11 loadbang;
#X connect 0 0 17 0;
#X connect 1 0 12 0;
#X connect 2 0 3 0;
#X connect 3 0 5 0;
#X connect 4 0 0 0;
#X connect 4 0 1 0;
#X connect 5 0 8 0;
#X connect 6 0 7 0;
#X connect 10 0 11 0;
#X connect 11 0 12 3;
#X connect 12 0 2 0;
#X connect 13 0 10 0;
#X connect 17 0 6 0;
#X connect 17 1 2 0;
#X connect 20 0 13 0;
#X connect 21 0 20 0;
#X restore 32 447 pd vu;
#X obj 35 365 *~;
#X obj 478 71 inlet;
#X obj 479 100 tgl 20 0 empty empty empty 0 -10 0 12 #fcfcfc #000000 #000000 0 1;
#X obj 530 70 inlet;
#X obj 526 102 switch~;
#X obj 232 562 tgl 20 0 empty empty SW 22 12 0 12 #ffc7c6 #000000 #000000 0 1;
#X obj 109 617 tgl 16 0 empty empty vis 22 12 0 10 #c6ffc7 #000000 #000000 0 1;
#X text 323 309 3o ambisonics => hexafonico;
#X obj 153 413 dbamp~;
#X text 109 501 Decode Binaural;
#X obj 38 312 vstplugin~ -e BinauralDecoder.vst 16 2;
#X msg 404 376 \$1 100;
#X obj 399 451 loadbang;
#X msg 398 482 -120;
#X obj 405 340 loadbang;
#X obj 1159 15 declare -lib iemlib;
#X obj 39 160 snake~ out 16, f 36;
#X obj 38 136 catch~ binaural 16;
#X obj 53 237 vstplugin~ -e Rev_PLATE-140.vst3 16 16;
#X obj 19 646 dac~ 17 18;
#X obj 480 591 writesf~ 2;
#X msg 544 506 start;
#X msg 613 508 stop;
#X obj 232 592 bng 19 250 50 0 empty empty empty 0 -10 0 12 #bbbbbb #000000 #000000;
#X obj 231 530 bng 19 250 50 0 empty empty empty 0 -10 0 12 #ff0400 #000000 #000000;
#X msg 548 438 open -bytes 3 ensaio.wav;
#X connect 0 0 36 0;
#X connect 18 0 34 0;
#X connect 19 0 20 0;
#X connect 19 0 37 0;
#X connect 22 0 21 0;
#X connect 22 1 21 1;
#X connect 23 0 22 0;
#X connect 23 0 45 1;
#X connect 23 0 46 1;
#X connect 25 0 24 0;
#X connect 25 1 24 1;
#X connect 26 0 25 0;
#X connect 26 0 45 0;
#X connect 26 0 46 0;
#X connect 27 0 28 0;
#X connect 28 0 0 0;
#X connect 29 0 30 0;
#X connect 31 0 30 0;
#X connect 32 0 28 0;
#X connect 34 0 23 1;
#X connect 34 0 26 1;
#X connect 36 0 26 0;
#X connect 36 1 23 0;
#X connect 37 0 18 0;
#X connect 38 0 39 0;
#X connect 39 0 19 0;
#X connect 40 0 37 0;
#X connect 42 0 44 0;
#X connect 42 1 44 1;
#X connect 42 2 44 2;
#X connect 42 3 44 3;
#X connect 42 4 44 4;
#X connect 42 5 44 5;
#X connect 42 6 44 6;
#X connect 42 7 44 7;
#X connect 42 8 44 8;
#X connect 42 9 44 9;
#X connect 42 10 44 10;
#X connect 42 11 44 11;
#X connect 42 12 44 12;
#X connect 42 13 44 13;
#X connect 42 14 44 14;
#X connect 42 15 44 15;
#X connect 43 0 42 0;
#X connect 44 0 36 0;
#X connect 44 1 36 1;
#X connect 44 2 36 2;
#X connect 44 3 36 3;
#X connect 44 4 36 4;
#X connect 44 5 36 5;
#X connect 44 6 36 6;
#X connect 44 7 36 7;
#X connect 44 8 36 8;
#X connect 44 9 36 9;
#X connect 44 10 36 10;
#X connect 44 11 36 11;
#X connect 44 12 36 12;
#X connect 44 13 36 13;
#X connect 44 14 36 14;
#X connect 44 15 36 15;
#X connect 47 0 46 0;
#X connect 48 0 46 0;
#X connect 49 0 48 0;
#X connect 50 0 47 0;
#X connect 51 0 46 0;
#X coords 0 -1 1 1 180 150 2 100 500;
