#N canvas 274 99 833 736 12;
#X obj 24 9 inlet~;
#X obj 29 72 *~;
#X obj 372 81 hsl 162 19 0 1 0 0 empty empty Gain -2 -10 0 12 #00ff04 #000000 #000000 0 1;
#X obj 27 156 *~;
#X obj 76 152 hsl 162 19 0 1 0 0 empty empty Output -2 -10 0 12 #00ff04 #000000 #000000 0 1;
#X obj 75 90 receive~ feedback-sig;
#X obj 372 119 hsl 162 19 0 5000 0 0 empty empty Delay_time -2 -10 0 12 #00ff04 #000000 #000000 0 1;
#X floatatom 97 249 5 0 0 0 - - - 0;
#X obj 41 405 *~, f 4;
#X obj 371 158 hsl 162 19 0 100 0 0 empty empty Delay_volume -2 -10 0 12 #00ff04 #000000 #000000 0 1;
#X obj 88 404 *~;
#X obj 371 199 hsl 162 19 0 1 0 0 empty empty Feedback\  -2 -10 0 12 #00ff04 #000000 #000000 0 1;
#X obj 114 469 send~ feedback-sig;
#X obj 30 329 delread~ audio-buffer 0;
#X obj 76 112 delwrite~ audio-buffer 5000;
#X obj 7 491 vstplugin~ -e StereoEncoder.vst 2 16;
#X obj 84 9 inlet~;
#X floatatom 468 379 5 0 0 0 - - - 0;
#X obj 468 355 line \$1 50;
#X obj 482 264 line \$1 50;
#X obj 26 569 throw_o3_hexa_bin \$1, f 48;
#X connect 0 0 1 0;
#X connect 1 0 3 0;
#X connect 1 0 14 0;
#X connect 2 0 18 0;
#X connect 3 0 15 0;
#X connect 4 0 3 1;
#X connect 5 0 14 0;
#X connect 6 0 19 0;
#X connect 7 0 13 0;
#X connect 8 0 15 0;
#X connect 9 0 8 1;
#X connect 10 0 12 0;
#X connect 11 0 10 1;
#X connect 13 0 8 0;
#X connect 13 0 10 0;
#X connect 15 0 20 0;
#X connect 15 1 20 1;
#X connect 15 2 20 2;
#X connect 15 3 20 3;
#X connect 15 4 20 4;
#X connect 15 5 20 5;
#X connect 15 6 20 6;
#X connect 15 7 20 7;
#X connect 15 8 20 8;
#X connect 15 9 20 9;
#X connect 15 10 20 10;
#X connect 15 11 20 11;
#X connect 15 12 20 12;
#X connect 15 13 20 13;
#X connect 15 14 20 14;
#X connect 15 15 20 15;
#X connect 16 0 1 0;
#X connect 17 0 1 1;
#X connect 18 0 17 0;
#X connect 19 0 7 0;
#X coords 0 -1 1 1 200 200 1 350 30;
