#N canvas 228 69 1452 905 12;
#X text 743 817 duration in samples;
#X floatatom 105 423 10 0 0 0 - - - 0;
#X floatatom 735 394 5 0 0 0 - - - 0;
#X msg 107 464 next \$1;
#X text 170 464 target next voice;
#X obj 104 243 phasor~;
#X obj 107 336 *~;
#X obj 125 280 receive fileDuration;
#X floatatom 125 307 10 0 0 0 - - - 0;
#X obj 107 381 snapshot~;
#X obj 577 347 tgl 20 0 empty empty on/off 22 7 0 10 #ffc7c6 #000000 #000000 0 1;
#X floatatom 106 134 5 0 0 0 - - - 0;
#X obj 106 73 receive fileDuration;
#X obj 106 97 expr $f2 / $f1;
#X obj 258 72 loadbang;
#X obj 258 96 samplerate~;
#X obj 105 211 * 1, f 6;
#X obj 333 162 t b f;
#X floatatom 586 444 5 0 0 0 - - - 0;
#X floatatom 320 327 5 0 0 0 - - - 0;
#X text 776 392 grain dur;
#X obj 322 378 random 10;
#X obj 323 406 + 50;
#X floatatom 397 379 5 0 0 0 - - - 0;
#X text 626 392 grain rate;
#X floatatom 586 393 5 0 0 0 - - - 0;
#X obj 591 372 hsl 128 15 10 2000 1 0 empty empty empty -2 -8 0 10 #c6ffc7 #000000 #000000 0 1;
#X obj 738 374 hsl 128 15 20 2000 0 0 empty empty empty -2 -8 0 10 #c6ffc7 #000000 #000000 0 1;
#X obj 591 561 loadbang;
#X obj 589 425 hsl 128 15 -2 2 0 0 empty empty empty -2 -8 0 10 #c4fcc4 #000000 #000000 0 1;
#X obj 840 573 loadbang;
#X msg 841 600 0.25;
#X floatatom 583 501 5 0 0 0 - - - 0;
#X obj 586 477 hsl 128 15 0.1 2 0 0 empty empty empty -2 -8 0 10 #c6ffc7 #000000 #000000 0 1;
#X obj 943 569 loadbang;
#X obj 1079 572 loadbang;
#X msg 1083 599 1;
#X msg 948 599 600;
#X obj 955 632 s \$0_grain_dur;
#X obj 286 647 bng 19 250 50 0 empty empty empty 0 -10 0 12 #fcfcfc #000000 #000000;
#X obj 286 671 f \$0;
#X floatatom 286 695 5 0 0 0 - - - 0;
#X obj 1086 631 s \$0_grain_transpose;
#X obj 786 621 f \$0;
#X floatatom 771 643 5 0 0 0 - - - 0;
#X obj 577 322 bng 20 250 50 0 empty empty empty 0 -10 0 12 #ffc7c6 #000000 #000000;
#X obj 740 426 hsl 128 15 20 200 0 0 empty empty empty -2 -8 0 10 #c6ffc7 #000000 #000000 0 1;
#X obj 1247 574 loadbang;
#X msg 1261 607 20;
#X obj 1249 632 s \$0_gfade_dur;
#X text 599 324 Load Samples;
#X text 766 306 Granulator Samples;
#X text 734 440 gfade dur;
#X text 582 524 transpose (1 = normal);
#X text 583 460 playback rate (1=normal);
#X obj 51 777 vstplugin~ StereoEncoder.vst 2 16;
#X obj 258 549 env~, f 10;
#X floatatom 258 580 5 0 0 0 - - - 0;
#X obj 51 849 throw_o3_hexa_bin \$1, f 48;
#X obj 116 637 outlet~;
#X obj 180 641 outlet~;
#X obj 878 219 dbamp~;
#X obj 875 375 vsl 19 162 0 4 0 0 empty empty empty 0 -9 0 12 #c6ffc7 #000000 #000000 0 1;
#X text 872 350 Vol;
#X text 396 674 set parameter;
#X floatatom 458 645 5 0 0 0 - - - 0;
#X msg 392 693 param_set 6 \$1;
#X floatatom 469 568 5 0 0 0 - - - 0;
#X obj 469 592 + 1;
#X obj 469 617 / 2;
#X obj 473 747 random 2001;
#X floatatom 473 822 5 0 0 0 - - - 0;
#X obj 473 846 line;
#X obj 418 601 t b;
#X obj 471 723 bng 19 250 50 0 empty empty empty 0 -10 0 12 #fcfcfc #000000 #000000;
#X obj 319 354 metro 125;
#X obj 419 571 f;
#X obj 769 262 receive kr1;
#X obj 21 554 send~ smpvox;
#X obj 120 551 *~ 1;
#X obj 879 189 loadbang;
#X obj 473 797 - 1;
#X obj 473 772 / 1000;
#X text 360 327 Trigger diferentes graos;
#X text 176 382 Pega novos valores;
#X text 164 242 0 - 1;
#X text 139 337 0-dur em samples;
#X text 208 244 Trigger sample em valores regulares;
#X text 261 490 comment;
#X obj 106 491 clone grain 32 \$0;
#X text 149 134 velocidade normal;
#X text 438 379 comment;
#X obj 539 887 dac~ 4;
#X obj 450 900 print;
#X obj 826 719 * 1;
#X obj 625 593 tgl 19 0 empty empty empty 0 -10 0 12 #fcfcfc #000000 #000000 0 1;
#X obj 562 649 *~ 1;
#X obj 619 637 metro 100;
#X obj 673 593 hsl 162 19 0 200 0 0 empty empty empty -2 -10 0 12 #fcfcfc #000000 #000000 0 1;
#X obj 563 591 adc~ 1;
#X obj 899 19 array define \$0_grainmicArray;
#X obj 562 701 tabwrite~ \$0_grainmicArray;
#X obj 827 691 tabplay~ \$0_grainmicArray;
#X obj 826 750 send fileDuration;
#X connect 1 0 3 0;
#X connect 1 0 76 0;
#X connect 2 0 38 0;
#X connect 3 0 89 0;
#X connect 5 0 6 0;
#X connect 6 0 9 0;
#X connect 7 0 8 0;
#X connect 8 0 6 1;
#X connect 9 0 1 0;
#X connect 10 0 75 0;
#X connect 11 0 16 0;
#X connect 12 0 13 0;
#X connect 13 0 11 0;
#X connect 14 0 15 0;
#X connect 15 0 13 1;
#X connect 16 0 5 0;
#X connect 17 0 16 0;
#X connect 17 1 16 1;
#X connect 18 0 17 0;
#X connect 19 0 75 1;
#X connect 21 0 22 0;
#X connect 22 0 19 0;
#X connect 23 0 21 1;
#X connect 25 0 22 1;
#X connect 26 0 25 0;
#X connect 27 0 2 0;
#X connect 28 0 99 0;
#X connect 29 0 18 0;
#X connect 30 0 31 0;
#X connect 31 0 29 0;
#X connect 32 0 42 0;
#X connect 33 0 32 0;
#X connect 34 0 37 0;
#X connect 35 0 36 0;
#X connect 36 0 33 0;
#X connect 37 0 27 0;
#X connect 39 0 40 0;
#X connect 40 0 41 0;
#X connect 43 0 44 0;
#X connect 45 0 99 0;
#X connect 46 0 49 0;
#X connect 47 0 48 0;
#X connect 48 0 46 0;
#X connect 55 0 58 0;
#X connect 55 1 58 1;
#X connect 55 2 58 2;
#X connect 55 3 58 3;
#X connect 55 4 58 4;
#X connect 55 5 58 5;
#X connect 55 6 58 6;
#X connect 55 7 58 7;
#X connect 55 8 58 8;
#X connect 55 9 58 9;
#X connect 55 10 58 10;
#X connect 55 11 58 11;
#X connect 55 12 58 12;
#X connect 55 13 58 13;
#X connect 55 14 58 14;
#X connect 55 15 58 15;
#X connect 56 0 57 0;
#X connect 61 0 62 0;
#X connect 62 0 79 1;
#X connect 65 0 66 0;
#X connect 66 0 55 0;
#X connect 67 0 68 0;
#X connect 68 0 69 0;
#X connect 69 0 65 0;
#X connect 70 0 82 0;
#X connect 71 0 72 0;
#X connect 72 0 66 0;
#X connect 72 0 92 0;
#X connect 72 0 93 0;
#X connect 73 0 74 0;
#X connect 74 0 70 0;
#X connect 75 0 21 0;
#X connect 75 0 9 0;
#X connect 76 0 73 0;
#X connect 77 0 27 0;
#X connect 79 0 59 0;
#X connect 79 0 60 0;
#X connect 79 0 55 0;
#X connect 80 0 61 0;
#X connect 81 0 71 0;
#X connect 82 0 81 0;
#X connect 89 0 56 0;
#X connect 89 0 79 0;
#X connect 89 0 78 0;
#X connect 94 0 103 0;
#X connect 95 0 97 0;
#X connect 96 0 101 0;
#X connect 97 0 101 0;
#X connect 98 0 97 1;
#X connect 99 0 96 0;
#X connect 102 0 94 0;
