#N canvas 800 134 880 782 12;
#X obj 80 472 line~;
#X msg 80 443 \$1 \, \$2 \$3;
#X floatatom 98 137 10 0 0 0 - - - 0;
#X obj 98 159 t f f;
#X obj 81 412 pack f f f;
#X obj 127 342 +;
#X floatatom 187 206 5 0 0 0 - - - 0;
#X obj 185 268 * 44.1;
#X obj 431 200 loadbang;
#X obj 431 224 samplerate~;
#X obj 431 248 / 1000;
#X obj 104 53 inlet;
#X obj 80 565 outlet~;
#X obj 101 89 t f b, f 66;
#X obj 560 125 t b b;
#X obj 562 164 del 50;
#X msg 619 199 1;
#X obj 615 268 line~;
#X obj 80 534 *~, f 70;
#X obj 675 144 - 50;
#X obj 615 238 pack f 50;
#X obj 206 354 t b f;
#X obj 200 379 / 1;
#X obj 187 167 r \$2_grain_dur;
#X obj 207 325 r \$2_grain_transpose;
#X obj 671 87 r \$2_grain_dur;
#X obj 674 117 f;
#X obj 754 105 r \$2_gfade_dur;
#X obj 758 144 t b f;
#X text 181 135 ponto de inicio em samples;
#X text 226 205 duracao do grao em ms;
#X text 127 471 Inicio e fim em samples. Tempo em milisegundos;
#X text 400 5 grain;
#X text 421 67 Envelope para volume;
#X msg 580 199 0;
#X obj 80 503 tabread4~ \$2_grainmicArray;
#X connect 0 0 35 0;
#X connect 1 0 0 0;
#X connect 2 0 3 0;
#X connect 3 0 4 0;
#X connect 3 1 5 0;
#X connect 4 0 1 0;
#X connect 5 0 4 1;
#X connect 6 0 7 0;
#X connect 6 0 22 0;
#X connect 7 0 5 1;
#X connect 8 0 9 0;
#X connect 9 0 10 0;
#X connect 10 0 7 1;
#X connect 11 0 13 0;
#X connect 13 0 2 0;
#X connect 13 1 14 0;
#X connect 14 0 15 0;
#X connect 14 1 16 0;
#X connect 15 0 34 0;
#X connect 16 0 20 0;
#X connect 17 0 18 1;
#X connect 18 0 12 0;
#X connect 19 0 15 1;
#X connect 20 0 17 0;
#X connect 21 0 22 0;
#X connect 21 1 22 1;
#X connect 22 0 4 2;
#X connect 23 0 6 0;
#X connect 24 0 21 0;
#X connect 25 0 26 0;
#X connect 26 0 19 0;
#X connect 27 0 28 0;
#X connect 28 0 26 0;
#X connect 28 1 19 1;
#X connect 28 1 20 1;
#X connect 34 0 20 0;
#X connect 35 0 18 0;
