#N canvas 461 209 609 441 12;
#X obj 38 123 bng 15 250 50 0 empty empty empty 17 7 0 10 #dcdcdc #000000 #000000;
#X text 60 122 <= excite the resonator;
#X obj 38 150 else/impseq~;
#X obj 118 209 mtof;
#X obj 39 16 inlet;
#X obj 29 326 outlet~;
#X obj 38 239 else/resonant~ 500 5000;
#X obj 115 178 f;
#X obj 40 51 unpack 0 0 0;
#X obj 166 308 *~;
#X floatatom 341 251 8 0 0 0 - - - 0;
#X obj 341 207 env~ 2048 256;
#X obj 415 71 switch~;
#X obj 377 40 tgl 20 0 empty empty empty 0 -10 0 12 #fcfcfc #000000 #000000 0 1;
#X obj 39 98 t b f b;
#X msg 326 37 1;
#X obj 341 275 < 2;
#X msg 328 66 0;
#X obj 233 163 del;
#X connect 0 0 2 0;
#X connect 2 0 6 0;
#X connect 3 0 6 1;
#X connect 4 0 8 0;
#X connect 6 0 9 0;
#X connect 6 0 11 0;
#X connect 7 0 3 0;
#X connect 8 0 14 0;
#X connect 8 1 6 2;
#X connect 8 1 18 1;
#X connect 8 2 9 1;
#X connect 9 0 5 0;
#X connect 10 0 16 0;
#X connect 11 0 10 0;
#X connect 13 0 12 0;
#X connect 14 0 0 0;
#X connect 14 1 7 0;
#X connect 14 2 15 0;
#X connect 14 2 18 0;
#X connect 15 0 13 0;
#X connect 17 0 13 0;
#X connect 18 0 17 0;
