#N canvas 0 25 1680 949 12;
#X obj 155 153 adc~ \$1;
#X obj 239 351 vu 14 120 empty empty -1 -8 0 10 #404040 #000000 1 0;
#N canvas 329 161 625 417 vu 0;
#X obj 59 129 env~ 1024;
#X obj 161 111 abs~;
#X obj 161 213 snapshot~;
#X obj 161 256 rmstodb;
#X obj 161 21 inlet~;
#X obj 161 288 - 100;
#X obj 59 287 - 100;
#X obj 59 361 outlet;
#X obj 161 361 outlet;
#X text 344 307 Check the help file of env~ and slop~ for more details., f 31;
#X obj 239 89 expr 1000 / $f1;
#X floatatom 239 117 5 0 0 0 - - - 0;
#X obj 161 146 slop~ 0 0 0 0 1e+09;
#X floatatom 239 57 5 0 0 0 - - - 0;
#X text 359 89 convert to hz;
#X text 282 118 hz;
#X text 284 57 peak decay time in ms;
#X obj 59 171 t f b;
#X text 345 132 The env~ object is dedicated to RMS analysis. Its output is in dB (0-100 range \, pd style) but needs to be converted to dBFS (and we do that by simply subtracting 100)., f 31;
#X text 345 225 The slop~ object is used here for peak detection. We need to convert the output to dB with rmstodb and also subract by 100 to convert it to dBFS., f 31;
#X msg 291 32 500;
#X obj 291 11 loadbang;
#X connect 0 0 17 0;
#X connect 1 0 12 0;
#X connect 2 0 3 0;
#X connect 3 0 5 0;
#X connect 4 0 0 0;
#X connect 4 0 1 0;
#X connect 5 0 8 0;
#X connect 6 0 7 0;
#X connect 10 0 11 0;
#X connect 11 0 12 3;
#X connect 12 0 2 0;
#X connect 13 0 10 0;
#X connect 17 0 6 0;
#X connect 17 1 2 0;
#X connect 20 0 13 0;
#X connect 21 0 20 0;
#X restore 208 238 pd vu;
#X obj 325 216 inlet;
#X msg 325 241 \$1 50;
#X obj 153 436 *~;
#X text 153 131 arg1: mic number;
#X obj 389 245 route \$1;
#X obj 339 493 line~;
#X msg 338 469 \$1 5;
#X obj 389 220 r mic_gain;
#X obj 324 274 line;
#X obj 206 351 vsl 25 120 -120 6 0 0 empty empty empty 0 -9 0 12 #c6ffc7 #000000 #000000 0 1;
#X floatatom 206 478 7 0 0 1 dB - - 0;
#X obj 153 689 outlet~;
#X obj 339 518 dbamp~;
#X obj 477 384 loadbang;
#X obj 477 408 -120;
#X obj 58 318 inlet~;
#X connect 0 0 5 0;
#X connect 2 0 1 0;
#X connect 2 1 1 1;
#X connect 3 0 4 0;
#X connect 4 0 11 0;
#X connect 5 0 2 0;
#X connect 5 0 14 0;
#X connect 7 0 11 0;
#X connect 8 0 15 0;
#X connect 9 0 8 0;
#X connect 10 0 7 0;
#X connect 11 0 12 0;
#X connect 12 0 13 0;
#X connect 12 0 9 0;
#X connect 15 0 5 1;
#X connect 16 0 17 0;
#X connect 17 0 12 0;
#X connect 18 0 5 0;
#X coords 0 -1 1 1 90 180 1 200 320;
