#N canvas 2197 296 466 420 12;
#X obj 103 89 unpack f f f f;
#X floatatom 85 123 5 0 0 0 - - - 0;
#X obj 85 146 osc~;
#X floatatom 199 124 5 0 0 0 - - - 0;
#X obj 199 147 pack 0 10;
#X obj 199 171 line~;
#X obj 120 212 *~;
#X floatatom 263 115 5 0 0 0 - - - 0;
#X obj 206 230 pack 0 10;
#X obj 206 254 line~;
#X obj 129 294 *~;
#X floatatom 212 200 5 0 1 0 - - - 0;
#X obj 103 33 receive peaks;
#X obj 103 65 route 16;
#X obj 129 318 outlet~;
#X connect 0 0 1 0;
#X connect 0 1 3 0;
#X connect 1 0 2 0;
#X connect 2 0 6 0;
#X connect 3 0 4 0;
#X connect 4 0 5 0;
#X connect 5 0 6 1;
#X connect 6 0 10 0;
#X connect 7 0 4 1;
#X connect 8 0 9 0;
#X connect 9 0 10 1;
#X connect 10 0 14 0;
#X connect 11 0 8 0;
#X connect 12 0 13 0;
#X connect 13 0 0 0;
