#N canvas 361 72 909 777 12;
#X obj 70 513 bob~, f 21;
#X obj 141 251 vsl 19 162 0 127 0 0 empty empty empty 0 -9 0 12 #ff0400 #000000 #000000 0 1;
#X floatatom 141 427 5 0 0 0 - - - 0;
#X obj 141 450 mtof;
#X floatatom 141 481 5 0 0 0 - - - 0;
#X obj 213 250 vsl 19 162 0 4 0 0 empty empty empty 0 -9 0 12 #ff8300 #000000 #000000 0 1;
#X floatatom 215 426 5 0 0 0 - - - 0;
#X obj 71 558 *~ 0.5;
#X obj 66 638 dac~;
#X obj 53 163 hip~ 40;
#X floatatom 97 124 5 0 0 0 - - - 0;
#X text 240 303 Resonance;
#X text 162 304 Freq;
#X obj 179 111 bng 19 250 50 0 empty empty empty 0 -10 0 12 #fcfcfc #000000 #000000;
#X obj 180 158 random 88;
#X obj 178 190 + 20;
#X obj 56 50 phasor~ 10;
#X floatatom 55 19 5 0 0 0 - - - 0;
#X obj 179 82 threshold~ 0.99 1 0.1 1;
#X connect 0 0 7 0;
#X connect 1 0 2 0;
#X connect 2 0 3 0;
#X connect 3 0 4 0;
#X connect 4 0 0 1;
#X connect 5 0 6 0;
#X connect 6 0 0 2;
#X connect 7 0 8 0;
#X connect 7 0 8 1;
#X connect 9 0 0 0;
#X connect 10 0 9 1;
#X connect 13 0 14 0;
#X connect 14 0 15 0;
#X connect 15 0 1 0;
#X connect 16 0 9 0;
#X connect 16 0 18 0;
#X connect 17 0 16 0;
#X connect 18 0 13 0;
