#N canvas 21 25 1395 819 12;
#X declare -lib cyclone;
#X declare -lib else;
#X obj 87 191 list length;
#N canvas 1339 -877 861 776 parameters 0;
#X obj 186 502 outlet;
#X obj 34 -62 loadbang;
#X floatatom 245 187 8 -1 0 0 - - - 0;
#X floatatom 185 186 8 0 0 0 - - - 0;
#X floatatom 185 105 8 0 0 0 - - - 0;
#X floatatom 305 187 8 -1 0 0 - - - 0;
#X text 104 186 fftsettings;
#X obj 596 328 pack 0 0 0;
#X msg 596 352 fftsettings \$1 \$2 \$3;
#X obj 186 4 r help.mfcc.presets;
#X obj 186 27 unpack 0 0 0 0 0 0 0, f 31;
#X msg 34 -37 \; help.mfcc.presets 13 40 20000 20 1024 -1 -1;
#X text 111 105 numcoeffs, f 10;
#X floatatom 185 125 8 0 0 0 - - - 0;
#X floatatom 185 145 8 10 20000 0 - - - 0;
#X floatatom 185 165 8 10 20000 0 - - - 0;
#X msg 186 352 numcoeffs \$1;
#X msg 286 352 numbands \$1;
#X msg 386 352 maxfreq \$1;
#X msg 486 352 minfreq \$1;
#X text 118 125 numbands, f 9;
#X text 125 145 maxfreq, f 8;
#X text 125 165 minfreq, f 8;
#X connect 1 0 11 0;
#X connect 2 0 7 1;
#X connect 3 0 7 0;
#X connect 4 0 16 0;
#X connect 5 0 7 2;
#X connect 7 0 8 0;
#X connect 8 0 0 0;
#X connect 9 0 10 0;
#X connect 10 0 4 0;
#X connect 10 1 13 0;
#X connect 10 2 14 0;
#X connect 10 3 15 0;
#X connect 10 4 3 0;
#X connect 10 5 2 0;
#X connect 10 6 5 0;
#X connect 13 0 17 0;
#X connect 14 0 18 0;
#X connect 15 0 19 0;
#X connect 16 0 0 0;
#X connect 17 0 0 0;
#X connect 18 0 0 0;
#X connect 19 0 0 0;
#X coords 0 -1 1 1 270 110 2 100 100;
#X restore 299 11 pd parameters;
#X obj 63 251 array set \$0_micIn;
#X obj 89 225 array size \$0_micIn;
#X obj 320 248 fluid.mlpregressor network-fe -hiddenlayers 3 -activation 1 -outputactivation 1 -batchsize 2 -maxiter 1000 -learnrate 0.1 -validation 0 -momentum 0.9;
#X obj 26 10 adc~ 1;
#X obj 1225 14 declare -lib cyclone;
#X obj 47 138 fluid.mfcc~;
#X obj 62 163 cyclone/scale -40000 40000 -1 1;
#X obj 315 345 array get \$0_micIn;
#X obj 315 317 bng 19 250 50 0 empty empty empty 0 -10 0 12 #fcfcfc #000000 #000000;
#X obj 1225 39 declare -lib else;
#X obj 69 352 bng 19 250 50 0 empty empty empty 0 -10 0 12 #fcfcfc #000000 #000000;
#X obj 68 480 else/combine;
#X obj 70 414 t f b;
#X obj 46 631 fluid.dataset \$0_micIn;
#X listbox 315 369 63 0 0 0 - - - 0;
#X obj 68 385 cyclone/counter;
#X obj 213 731 print;
#X obj 1204 171 array define \$0_micIn;
#X obj 67 508 list trim;
#X msg 120 451 point;
#X listbox 54 680 20 0 0 0 - - - 0;
#X text 57 96 procurar Spectral Flatness;
#X obj 269 607 fluid.dataset \$0_micIn;
#X listbox 277 656 19 0 0 0 - - - 0;
#X msg 275 561 addpoint \$1 1083_micIn;
#X msg 52 585 addpoint \$1 \$2_micIn;
#X obj 62 546 pack 0 \$0;
#X connect 0 0 3 0;
#X connect 1 0 7 0;
#X connect 5 0 7 0;
#X connect 7 0 8 0;
#X connect 8 0 2 0;
#X connect 8 0 0 0;
#X connect 9 0 16 0;
#X connect 10 0 9 0;
#X connect 12 0 17 0;
#X connect 13 0 20 0;
#X connect 14 0 13 0;
#X connect 14 1 21 0;
#X connect 15 0 22 0;
#X connect 17 0 14 0;
#X connect 20 0 28 0;
#X connect 21 0 13 0;
#X connect 24 0 25 0;
#X connect 26 0 24 0;
#X connect 27 0 15 0;
#X connect 28 0 27 0;
