#N canvas 2107 194 876 671 12;
#X obj 125 53 receive rev;
#X floatatom 170 81 5 0 0 0 - - - 0;
#X floatatom 218 80 5 0 0 0 - - - 0;
#X floatatom 268 79 5 0 0 0 - - - 0;
#X floatatom 319 79 5 0 0 0 - - - 0;
#X obj 128 119 rev2~ 100 90 3000 20, f 25;
#X obj 134 186 vstplugin~ -e StereoEncoder.vst 2 16;
#X obj 134 258 throw_o3_hexa_bin \$1, f 48;
#X connect 0 0 5 0;
#X connect 1 0 5 1;
#X connect 2 0 5 2;
#X connect 3 0 5 3;
#X connect 4 0 5 4;
#X connect 5 0 6 0;
#X connect 5 1 6 0;
#X connect 5 2 6 0;
#X connect 5 3 6 0;
#X connect 6 0 7 0;
#X connect 6 1 7 1;
#X connect 6 2 7 2;
#X connect 6 3 7 3;
#X connect 6 4 7 4;
#X connect 6 5 7 5;
#X connect 6 6 7 6;
#X connect 6 7 7 7;
#X connect 6 8 7 8;
#X connect 6 9 7 9;
#X connect 6 10 7 10;
#X connect 6 11 7 11;
#X connect 6 12 7 12;
#X connect 6 13 7 13;
#X connect 6 14 7 14;
#X connect 6 15 7 15;
