#N canvas 1954 192 1244 701 12;
#X declare -lib Live-Coding-Toolkit-for-Pure-Data-main;
#X declare -lib iemlib;
#X obj 14 14 declare -lib Live-Coding-Toolkit-for-Pure-Data-main;
#X obj 62 101 cnv 19 336 156 empty empty empty 20 12 0 12 #e0e0e0 #404040 0;
#X obj 77 151 hsl 162 19 0 127 0 0 empty empty Time -2 -10 0 12 #c6ffc7 #000000 #000000 0 1;
#X obj 77 190 hsl 162 19 0 1 0 0 empty empty Level -2 -10 0 12 #c6ffc7 #000000 #000000 0 1;
#X floatatom 246 190 5 0 0 0 - - - 0;
#X floatatom 245 151 5 0 0 0 - - - 0;
#X obj 77 230 hsl 162 19 0 1 0 0 empty empty Feedback -2 -10 0 12 #c6ffc7 #000000 #000000 0 1;
#X floatatom 244 230 5 0 0 0 - - - 0;
#X obj 352 145 else/gain~ 1 0 20 0 0;
#X obj 310 145 else/gain~ 1 0 20 0 0;
#X text 308 126 Dry;
#X text 349 127 Wet;
#X text 186 106 Reverb;
#X obj 383 15 declare -lib iemlib;
#X obj 579 306 vstplugin~ -e StereoEncoder.vst 16 16;
#X obj 579 378 throw_o3_hexa_bin \$1, f 48;
#X obj 555 198 vstplugin~ -e FdnReverb.vst 2 16;
#X obj 551 132 r~ \$1 rev;
#X obj 727 133 r~ \$1 rev;
#X connect 2 0 5 0;
#X connect 3 0 4 0;
#X connect 6 0 7 0;
#X connect 14 0 15 0;
#X connect 14 1 15 1;
#X connect 14 2 15 2;
#X connect 14 3 15 3;
#X connect 14 4 15 4;
#X connect 14 5 15 5;
#X connect 14 6 15 6;
#X connect 14 7 15 7;
#X connect 14 8 15 8;
#X connect 14 9 15 9;
#X connect 14 10 15 10;
#X connect 14 11 15 11;
#X connect 14 12 15 12;
#X connect 14 13 15 13;
#X connect 14 14 15 14;
#X connect 14 15 15 15;
#X connect 16 0 14 0;
#X connect 16 1 14 1;
#X connect 16 2 14 2;
#X connect 16 3 14 3;
#X connect 16 4 14 4;
#X connect 16 5 14 5;
#X connect 16 6 14 6;
#X connect 16 7 14 7;
#X connect 16 8 14 8;
#X connect 16 9 14 9;
#X connect 16 10 14 10;
#X connect 16 11 14 11;
#X connect 16 12 14 12;
#X connect 16 13 14 13;
#X connect 16 14 14 14;
#X connect 16 15 14 15;
#X connect 17 0 16 0;
#X connect 18 0 16 1;
#X coords 0 -1 1 1 337 156 2 60 100;
