#N canvas -55 61 646 300 12;
#X obj 89 219 dac~;
#X obj 246 43 hradio 20 1 0 8 empty empty empty 0 -10 0 12 #fcfcfc #000000 #000000 0;
#X floatatom 246 68 5 0 0 0 - - - 0;
#X msg 246 92 vis \$1 1;
#X obj 65 64 random 12;
#X obj 65 89 + 60;
#X obj 72 29 bng 20 250 50 0 empty empty empty 0 -10 0 12 #fcfcfc #000000 #000000;
#X msg 69 116 next \$1 12000 1;
#X obj 88 161 clone impulse_cloneabs 125;
#X connect 1 0 2 0;
#X connect 2 0 3 0;
#X connect 3 0 8 0;
#X connect 4 0 5 0;
#X connect 5 0 7 0;
#X connect 6 0 4 0;
#X connect 7 0 8 0;
#X connect 8 0 0 0;
#X connect 8 0 0 1;
