#N canvas 0 32 1280 632 12;
#X obj 10 290 throw~ \$1-hexa-o3-0;
#X obj 20 300 throw~ \$1-hexa-o3-1;
#X obj 30 310 throw~ \$1-hexa-o3-2;
#X obj 40 320 throw~ \$1-hexa-o3-3;
#X obj 50 330 throw~ \$1-hexa-o3-4;
#X obj 60 340 throw~ \$1-hexa-o3-5;
#X obj 70 350 throw~ \$1-hexa-o3-6;
#X obj 80 360 throw~ \$1-hexa-o3-7;
#X obj 90 370 throw~ \$1-hexa-o3-8;
#X obj 100 380 throw~ \$1-hexa-o3-9;
#X obj 110 390 throw~ \$1-hexa-o3-10;
#X obj 120 400 throw~ \$1-hexa-o3-11;
#X obj 130 410 throw~ \$1-hexa-o3-12;
#X obj 140 420 throw~ \$1-hexa-o3-13;
#X obj 150 430 throw~ \$1-hexa-o3-14;
#X obj 160 440 throw~ \$1-hexa-o3-15;
#X obj 464 264 throw~ \$1-bin-o3-0;
#X obj 474 274 throw~ \$1-bin-o3-1;
#X obj 484 284 throw~ \$1-bin-o3-2;
#X obj 494 294 throw~ \$1-bin-o3-3;
#X obj 504 304 throw~ \$1-bin-o3-4;
#X obj 514 314 throw~ \$1-bin-o3-5;
#X obj 524 324 throw~ \$1-bin-o3-6;
#X obj 534 334 throw~ \$1-bin-o3-7;
#X obj 544 344 throw~ \$1-bin-o3-8;
#X obj 554 354 throw~ \$1-bin-o3-9;
#X obj 564 364 throw~ \$1-bin-o3-10;
#X obj 574 374 throw~ \$1-bin-o3-11;
#X obj 584 384 throw~ \$1-bin-o3-12;
#X obj 594 394 throw~ \$1-bin-o3-13;
#X obj 604 404 throw~ \$1-bin-o3-14;
#X obj 614 414 throw~ \$1-bin-o3-15;
#X obj 9 19 inlet~;
#X obj 59 19 inlet~;
#X obj 109 19 inlet~;
#X obj 159 19 inlet~;
#X obj 209 19 inlet~;
#X obj 259 19 inlet~;
#X obj 309 19 inlet~;
#X obj 359 19 inlet~;
#X obj 409 19 inlet~;
#X obj 459 19 inlet~;
#X obj 509 19 inlet~;
#X obj 559 19 inlet~;
#X obj 609 19 inlet~;
#X obj 659 19 inlet~;
#X obj 709 19 inlet~;
#X obj 759 19 inlet~;
#X connect 32 0 0 0;
#X connect 32 0 16 0;
#X connect 33 0 1 0;
#X connect 33 0 17 0;
#X connect 34 0 2 0;
#X connect 34 0 18 0;
#X connect 35 0 3 0;
#X connect 35 0 19 0;
#X connect 36 0 4 0;
#X connect 36 0 20 0;
#X connect 37 0 5 0;
#X connect 37 0 21 0;
#X connect 38 0 6 0;
#X connect 38 0 22 0;
#X connect 39 0 7 0;
#X connect 39 0 23 0;
#X connect 40 0 8 0;
#X connect 40 0 24 0;
#X connect 41 0 9 0;
#X connect 41 0 25 0;
#X connect 42 0 10 0;
#X connect 42 0 26 0;
#X connect 43 0 11 0;
#X connect 43 0 27 0;
#X connect 44 0 12 0;
#X connect 44 0 28 0;
#X connect 45 0 13 0;
#X connect 45 0 29 0;
#X connect 46 0 14 0;
#X connect 46 0 30 0;
#X connect 47 0 15 0;
#X connect 47 0 31 0;
