#N canvas 1890 66 1341 779 12;
#X declare -path ofelia/abs;
#X obj 12 5 declare -path ofelia/abs;
#X obj 28 72 loadbang;
#X obj 28 114 ofWindow;
#X obj 27 142 ofSetup;
#X obj 17 345 ofDraw;
#X msg 28 93 setPosition 30 100 \, setSize 1024 768 \, create;
#X msg 28 170 bang;
#X obj 19 373 ofelia f \; ofTranslate(centerX \, centerY) \; for i = 1 \, 9 do \; ofPushMatrix() \; ofSetLineWidth(i / 2) \; ofSetColor((i * 80) % 255 \, (i * 50) % 255 \, (i * 30) % 255) \; ofRotateXDeg(angle * 11) \; ofRotateYDeg(angle * 7) \; ofRotateZDeg(angle * 3) \; ofDrawBox(size + math.sin(angle * 0.1 + i) * 100 + i * math.cos(angle * 0.25 + i)* 8) \; ofPopMatrix() \; end \; angle = angle + 0.1 \;;
#X f 93;
#X obj 27 202 ofelia f \; ofBackground(0) \; ofNoFill() \; centerX = ofGetWidth() / 2 \; centerY = ofGetHeight() / 2 \; size = 100 \; angle = 0 \;;
#X obj 348 177 ofelia d;
#X obj 347 139 bng 19 250 50 0 empty empty empty 0 -10 0 12 #fcfcfc #000000 #000000;
#X connect 1 0 5 0;
#X connect 3 0 6 0;
#X connect 4 0 7 0;
#X connect 5 0 2 0;
#X connect 6 0 8 0;
#X connect 10 0 9 0;
